<svg width="97" height="335" viewBox="0 0 97 335" fill="none" xmlns="http://www.w3.org/2000/svg">
<path d="M96.1999 225C85.1999 226.667 63.4999 235.7 64.6999 258.5C65.2 262.333 64.5 272.1 57.7 280.5C46.5333 295 22.4 326.1 15.2 334.5" stroke="white" stroke-width="2" stroke-linecap="round"/>
<path d="M55.0712 1C52.9045 4.83333 49.8712 15 55.0712 25C58.4045 29.8333 65.1712 40 65.5712 42C66.4045 45.3333 68.0712 52.7 68.0712 55.5C68.4045 64 74.5712 80 96.5712 76" stroke="white" stroke-width="2" stroke-linecap="round"/>
<path d="M46.4725 191.063C46.7684 190.926 47.091 190.856 47.3924 190.931C47.6988 191.007 47.964 191.228 48.1502 191.634C48.3348 192.036 48.4441 192.624 48.4441 193.448C48.4441 198.051 49.5521 200.749 50.9061 202.551C51.5841 203.453 52.3265 204.133 53.0301 204.717C53.7295 205.297 54.4022 205.791 54.9207 206.307C55.2612 206.645 55.3691 206.979 55.2586 207.29C55.1525 207.588 54.8559 207.83 54.4783 208.02C53.7179 208.401 52.5425 208.613 51.5164 208.613C49.8027 208.613 48.2158 208.354 46.8182 208.226C45.4198 208.097 44.2104 208.1 43.2 208.596C39.5034 212.912 32.9288 218.73 25.1912 222.181C17.4416 225.636 8.51263 226.722 0.147263 221.527C0.116391 221.508 0.0985604 221.474 0.100388 221.438C0.318634 217.101 2.60858 210.866 8.76054 206.235C14.9049 201.611 24.8893 198.595 40.4822 200.648L45.6551 191.656L45.6717 191.635C45.895 191.413 46.1755 191.202 46.4725 191.063Z" fill="white" stroke="#DAB05E" stroke-width="0.2" stroke-linejoin="round"/>
</svg>
