<svg width="375" height="139" viewBox="0 0 375 139" fill="none" xmlns="http://www.w3.org/2000/svg">
<path d="M45.0628 84.7012C39.6779 96.2558 30.6087 115.138 23.8068 122.747C17.8551 129.405 8.84251 138.642 0 137.965" stroke="white" stroke-width="2" stroke-linecap="round"/>
<path d="M68.0192 62.7182C58.4965 53.9254 53.8485 61.8727 52.7149 66.9455L50.1641 71.1728C46.7632 79.2893 54.4154 80.4729 56.1158 80.4729C57.8162 80.4729 60.367 79.5223 66.3188 77.9365C72.2706 76.3507 75.6713 74.5547 75.6713 69.4819C75.6713 64.4091 70.8533 63.8455 68.0192 62.7182Z" stroke="white" stroke-width="2"/>
<path d="M62.918 41.7363C63.9437 41.7364 64.9465 42.2852 65.7266 43.3193C66.507 44.3541 67.0195 45.829 67.0195 47.5C67.0195 49.171 66.5071 50.6459 65.7266 51.6807C64.9465 52.7148 63.9437 53.2636 62.918 53.2637C61.8922 53.2637 60.8895 52.7148 60.1094 51.6807C59.3289 50.6459 58.8164 49.171 58.8164 47.5C58.8164 45.829 59.3289 44.3541 60.1094 43.3193C60.8895 42.2852 61.8923 41.7363 62.918 41.7363Z" stroke="white" stroke-width="2"/>
<path d="M47.4903 45.683C48.3957 45.2066 49.5405 45.2246 50.717 45.7761C51.8937 46.3279 53.0405 47.394 53.8268 48.8715C54.6129 50.3487 54.8541 51.8906 54.6512 53.1684C54.4481 54.4458 53.8191 55.3972 52.9138 55.8737C52.0085 56.3499 50.8643 56.3316 49.688 55.7802C48.5114 55.2284 47.365 54.1629 46.5787 52.6857C45.7924 51.2082 45.5508 49.6657 45.7538 48.3879C45.9569 47.1106 46.5852 46.1595 47.4903 45.683Z" stroke="white" stroke-width="2"/>
<path d="M40.2071 60.1918C40.8111 59.485 41.7747 59.1082 42.9387 59.1642C44.1039 59.2203 45.413 59.7155 46.555 60.6803C47.6971 61.6452 48.3999 62.8499 48.6438 63.9843C48.8874 65.1175 48.6692 66.1239 48.0652 66.8308C47.4612 67.5375 46.4981 67.9136 45.3343 67.8577C44.1689 67.8016 42.8593 67.3072 41.7173 66.3423C40.5752 65.3774 39.873 64.1721 39.6291 63.0376C39.3856 61.9045 39.6033 60.8987 40.2071 60.1918Z" stroke="white" stroke-width="2"/>
<path d="M75.4899 49.6701C77.2699 50.1376 78.5815 52.5923 77.7894 55.574C76.9972 58.5554 74.6379 60.0449 72.8579 59.5774C71.0781 59.1096 69.7672 56.656 70.5591 53.6747C71.3512 50.6932 73.7099 49.2027 75.4899 49.6701Z" stroke="white" stroke-width="2"/>
<path d="M85.8745 46.655C89.8423 44.6822 96.9277 42.4276 102.879 41.5821C113.525 40.0697 123.965 40.0604 130.087 37.3549C140.573 33.6912 164.437 21.2911 176 1" stroke="white" stroke-width="2" stroke-linecap="round"/>
<path d="M295.5 1C291.35 7.58903 285.539 25.0643 295.5 42.253C301.886 50.5609 314.848 68.0362 315.615 71.4739C317.211 77.2035 320.404 89.8659 320.404 94.6788C321.042 109.289 332.856 136.791 375 129.916" stroke="white" stroke-width="2" stroke-linecap="round"/>
<path d="M337.457 87.8984C337.694 87.7874 337.955 87.7298 338.2 87.791C338.45 87.8535 338.664 88.0351 338.814 88.3623C338.962 88.6866 339.048 89.1583 339.048 89.8164C339.048 93.4798 339.925 95.6266 340.993 97.0576C341.529 97.7742 342.115 98.3149 342.671 98.7793C343.223 99.2404 343.758 99.6356 344.169 100.047C344.442 100.32 344.533 100.594 344.442 100.852C344.355 101.097 344.114 101.293 343.814 101.444C343.208 101.75 342.274 101.92 341.459 101.92C340.101 101.92 338.843 101.712 337.739 101.61C336.633 101.508 335.682 101.51 334.888 101.901C331.96 105.341 326.755 109.977 320.628 112.727C314.49 115.481 307.413 116.349 300.783 112.205C300.753 112.186 300.735 112.151 300.737 112.115C300.91 108.655 302.725 103.681 307.6 99.9883C312.468 96.3008 320.374 93.8984 332.714 95.5312L336.801 88.3789C336.805 88.3713 336.811 88.3646 336.818 88.3584C336.996 88.1802 337.219 88.0099 337.457 87.8984Z" fill="white" stroke="white" stroke-width="0.2" stroke-linejoin="round"/>
</svg>
