<svg width="151" height="335" viewBox="0 0 151 335" fill="none" xmlns="http://www.w3.org/2000/svg">
<path d="M38.4058 72.4814C33.8164 82.3493 26.087 98.4748 20.2899 104.973C15.2174 110.659 7.53623 118.547 0 117.97" stroke="white" stroke-width="2" stroke-linecap="round"/>
<path d="M57.9709 53.7082C49.855 46.199 45.8936 52.9861 44.9275 57.3183L42.7536 60.9286C39.855 67.8601 46.3768 68.871 47.826 68.871C49.2752 68.871 51.4492 68.0592 56.5217 66.7049C61.5943 65.3506 64.4927 63.8167 64.4927 59.4845C64.4927 55.1523 60.3864 54.6709 57.9709 53.7082Z" stroke="white" stroke-width="2"/>
<path d="M53.6229 35.9355C54.4397 35.9355 55.2543 36.373 55.8983 37.2285C56.5427 38.0847 56.9706 39.3131 56.9706 40.7119C56.9706 42.1107 56.5427 43.3392 55.8983 44.1953C55.2543 45.0508 54.4397 45.4883 53.6229 45.4883C52.8062 45.4882 51.9916 45.0508 51.3475 44.1953C50.7031 43.3392 50.2753 42.1107 50.2753 40.7119C50.2753 39.3131 50.7031 38.0847 51.3475 37.2285C51.9916 36.3729 52.8062 35.9356 53.6229 35.9355Z" stroke="white" stroke-width="2"/>
<path d="M40.544 39.2892C41.2651 38.9091 42.19 38.9159 43.1611 39.3721C44.1327 39.8285 45.0876 40.7155 45.7445 41.9522C46.4011 43.1888 46.5998 44.4738 46.4322 45.5309C46.2646 46.5876 45.75 47.3533 45.029 47.7336C44.3079 48.1139 43.3831 48.107 42.4119 47.6508C41.4404 47.1944 40.485 46.3086 39.8281 45.072C39.1713 43.8352 38.9731 42.5492 39.1409 41.492C39.3085 40.4353 39.823 39.6695 40.544 39.2892Z" stroke="white" stroke-width="2"/>
<path d="M34.3801 51.6451C34.8592 51.0834 35.6317 50.7736 36.588 50.8196C37.546 50.8658 38.6318 51.2742 39.5825 52.079C40.5332 52.8839 41.113 53.8855 41.3135 54.8201C41.5136 55.7532 41.3315 56.5627 40.8526 57.1246C40.3734 57.6866 39.6006 57.9969 38.644 57.9508C37.6859 57.9046 36.6002 57.4962 35.6495 56.6914C34.6989 55.8865 34.119 54.8848 33.9185 53.9503C33.7184 53.0171 33.9009 52.207 34.3801 51.6451Z" stroke="white" stroke-width="2"/>
<path d="M64.3008 42.7064C65.7057 43.0762 66.8189 45.0631 66.1547 47.569C65.4903 50.075 63.5372 51.2556 62.1323 50.8858C60.7274 50.5159 59.6143 48.5282 60.2786 46.0223C60.9431 43.5165 62.8959 42.3367 64.3008 42.7064Z" stroke="white" stroke-width="2"/>
<path d="M73.1884 39.99C76.57 38.3052 82.6086 36.3798 87.6811 35.6577C96.7545 34.3661 105.652 34.3581 110.87 32.0476C119.807 28.9188 140.145 18.3289 150 1" stroke="white" stroke-width="2" stroke-linecap="round"/>
<path d="M50.3277 267.316C46.8806 268.237 37.5045 266.625 27.5768 252.813C23.6701 248.669 12.6853 240.381 0 240.381" stroke="white" stroke-width="2" stroke-linejoin="round"/>
<path d="M51.7067 242.222C52.2509 242.222 52.8387 242.529 53.3297 243.218C53.8194 243.905 54.1539 244.906 54.1539 246.057C54.1538 247.207 53.8193 248.208 53.3297 248.895C52.8387 249.583 52.2509 249.891 51.7067 249.891C51.1624 249.891 50.5747 249.583 50.0836 248.895C49.594 248.208 49.2595 247.207 49.2594 246.057C49.2594 244.906 49.5939 243.905 50.0836 243.218C50.5747 242.529 51.1625 242.222 51.7067 242.222Z" stroke="white" stroke-width="2"/>
<path d="M62.3601 240.973C62.9253 241.142 63.4211 241.623 63.7089 242.411C63.9966 243.199 64.0442 244.232 63.7243 245.306C63.4044 246.381 62.7999 247.22 62.1282 247.721C61.4567 248.222 60.7785 248.353 60.2133 248.185C59.6481 248.016 59.1513 247.534 58.8636 246.746C58.5759 245.958 58.5294 244.925 58.8493 243.85C59.1692 242.776 59.7728 241.937 60.4442 241.436C61.1158 240.935 61.7949 240.804 62.3601 240.973Z" stroke="white" stroke-width="2"/>
<path d="M72.4667 247.351C72.9496 247.801 73.2019 248.546 73.077 249.512C72.9523 250.476 72.4533 251.573 71.563 252.532C70.6726 253.491 69.616 254.069 68.6652 254.263C67.7124 254.458 66.9529 254.259 66.47 253.809C65.9871 253.359 65.7342 252.614 65.859 251.648C65.9836 250.684 66.4833 249.586 67.3737 248.628C68.264 247.669 69.32 247.091 70.2708 246.897C71.2238 246.703 71.9837 246.901 72.4667 247.351Z" stroke="white" stroke-width="2"/>
<path d="M73.6454 259.365C73.9228 259.84 73.9492 260.532 73.5557 261.363C73.1647 262.188 72.3957 263.046 71.3082 263.684C70.2207 264.323 69.0974 264.576 68.1878 264.514C67.2721 264.452 66.6821 264.091 66.4047 263.617C66.1272 263.142 66.1004 262.449 66.4939 261.619C66.8849 260.794 67.6546 259.936 68.7419 259.298C69.8293 258.659 70.9523 258.406 71.8618 258.467C72.7776 258.529 73.368 258.891 73.6454 259.365Z" stroke="white" stroke-width="2"/>
<path d="M103.413 335C105.252 325.561 103.827 304.611 83.42 296.324C75.6065 292.41 59.0145 282.787 55.1537 275.604C53.7749 272.841 50.4657 266.626 48.2595 263.863L45.5019 261.1C44.5826 259.949 43.4334 256.266 47.57 254.194C53.0853 253.503 51.0172 253.503 56.5326 252.122C59.2903 252.122 63.2889 253.365 62.7374 258.338C62.7374 259.949 62.8753 263.449 63.4268 264.554C63.6566 267.316 62.5995 272.289 56.5326 270.079L53.0855 266.626" stroke="white" stroke-width="2" stroke-linecap="round" stroke-linejoin="round"/>
</svg>
