<svg width="230" height="163" viewBox="0 0 230 163" fill="none" xmlns="http://www.w3.org/2000/svg">
<path d="M104.509 162L80.5057 130.778C80.5057 130.778 36.4988 139.094 21.5874 130.778C6.67595 122.462 -14.7456 100.961 18.8597 81.48C12.1313 61.3957 9.91282 24.2944 54.8653 36.5641C55.0472 24.8787 61.8501 4.4355 76.6869 2.05552C91.5238 -0.324454 107.346 -0.683214 112.147 23.418C125.422 15.932 153.717 9.94319 160.7 45.8759C176.884 37.477 208.817 32.0725 207.071 77.6457C223.619 86.9575 246.786 110.621 207.071 130.778C167.356 150.935 115.966 130.778 115.966 130.778" stroke="#4A3728" stroke-width="2" stroke-linecap="round"/>
</svg>
