<svg width="261" height="185" viewBox="0 0 261 185" fill="none" xmlns="http://www.w3.org/2000/svg">
<path d="M118.583 184L91.3158 148.512C91.3158 148.512 41.3255 157.964 24.3867 148.512C7.4478 139.06 -16.8863 114.62 21.2881 92.4773C13.6449 69.6485 11.1248 27.4775 62.1892 41.4238C62.3958 28.1416 70.1237 4.90494 86.9778 2.19975C103.832 -0.505436 121.806 -0.913219 127.259 26.4813C142.339 17.9724 174.482 11.1652 182.414 52.008C200.799 42.4614 237.073 36.3184 235.09 88.119C253.888 98.7033 280.205 125.6 235.09 148.512C189.974 171.423 131.597 148.512 131.597 148.512" stroke="#4A3728" stroke-width="2" stroke-linecap="round"/>
</svg>
