<svg width="283" height="199" viewBox="0 0 283 199" fill="none" xmlns="http://www.w3.org/2000/svg">
<path d="M128.571 198L98.9873 159.797C98.9873 159.797 44.7508 169.972 26.3731 159.797C7.99539 149.622 -18.4057 123.312 23.0113 99.4755C14.7189 74.9003 11.9847 29.5031 67.3867 44.5163C67.6108 30.218 75.9951 5.20368 94.2808 2.29154C112.567 -0.620606 132.067 -1.05959 137.984 28.4307C154.344 19.2708 189.217 11.9429 197.823 55.9103C217.77 45.6334 257.125 39.0204 254.974 94.7839C275.368 106.178 303.921 135.132 254.974 159.797C206.026 184.461 142.69 159.797 142.69 159.797" stroke="#4A3728" stroke-width="2" stroke-linecap="round"/>
</svg>
