<svg width="283" height="199" viewBox="0 0 283 199" fill="none" xmlns="http://www.w3.org/2000/svg">
<path d="M154.429 198L184.012 159.797C184.012 159.797 238.249 169.972 256.627 159.797C275.004 149.622 301.405 123.312 259.988 99.4755C268.281 74.9003 271.015 29.5031 215.613 44.5163C215.389 30.218 207.005 5.20368 188.719 2.29154C170.433 -0.620606 150.933 -1.05959 145.016 28.4307C128.655 19.2708 93.7825 11.9429 85.1764 55.9103C65.2298 45.6334 25.8747 39.0204 28.0262 94.7839C7.63151 106.178 -20.9211 135.132 28.0262 159.797C76.9736 184.461 140.309 159.797 140.309 159.797" stroke="#4A3728" stroke-width="2" stroke-linecap="round"/>
</svg>
