<svg width="230" height="163" viewBox="0 0 230 163" fill="none" xmlns="http://www.w3.org/2000/svg">
<path d="M125.49 162L149.494 130.778C149.494 130.778 193.501 139.094 208.412 130.778C223.324 122.462 244.745 100.961 211.14 81.48C217.868 61.3957 220.087 24.2944 175.134 36.5641C174.953 24.8787 168.15 4.4355 153.313 2.05552C138.476 -0.324454 122.653 -0.683214 117.853 23.418C104.578 15.932 76.2826 9.94319 69.2997 45.8759C53.1153 37.477 21.183 32.0725 22.9287 77.6457C6.38071 86.9575 -16.7865 110.621 22.9287 130.778C62.644 150.935 114.034 130.778 114.034 130.778" stroke="#4A3728" stroke-width="2" stroke-linecap="round"/>
</svg>
