<svg width="664" height="373" viewBox="0 0 664 373" fill="none" xmlns="http://www.w3.org/2000/svg">
<path d="M40.5439 46.1973C66.25 22.3799 145.151 -17.8871 252.974 14.7549L253.817 15.0107L254.634 14.6807C276.798 5.73424 339.702 -7.01103 411.867 14.7559L412.619 14.9824L413.366 14.7383C435.084 7.64161 471.898 0.673164 511.479 2.93945C551.06 5.20576 593.154 16.6879 625.765 46.2168L625.846 46.29L625.934 46.3564C639.24 56.4316 655.179 75.4641 659.813 99.6768C664.411 123.699 657.973 153.306 625.692 184.951L623.756 186.85L625.806 188.625C640.835 201.65 658.012 224.764 661.034 251.703C664.026 278.374 653.208 309.441 611.024 338.812L610.995 338.833L610.967 338.854C586.265 357.122 511.654 387.223 413.285 358.709L412.551 358.496L411.822 358.73C385.822 367.119 317.762 378.896 254.457 358.728L253.709 358.489L252.959 358.722C227.916 366.474 186.23 373.475 142.819 369.202C99.4224 364.93 54.5812 349.427 22.7656 312.473C13.559 301.6 3.35125 282.306 2.74512 259.961C2.14314 237.768 10.9976 212.264 40.4082 188.687L42.9238 186.671L40.3447 184.736C26.003 173.979 8.89018 154.149 3.91992 129.729C-0.999974 105.557 5.86656 76.3305 40.4844 46.251L40.5146 46.2246L40.5439 46.1973Z" stroke="#59A9C2" stroke-width="5"/>
</svg>
