<svg width="362" height="390" viewBox="0 0 362 390" fill="none" xmlns="http://www.w3.org/2000/svg">
<path d="M22.0615 47.1476C-16.0811 110.735 6.16873 172.374 22.0615 195.246C-10.4465 245.246 2.01496 304.394 12.3092 327.719C47.4177 405.98 111.097 392.936 138.548 376.632C173.223 397.827 210.427 385.463 224.694 376.632C278.441 406.523 319.328 375.047 333.054 355.572C379.432 293.615 357.796 222.872 341.181 195.246C376.723 128.398 355.99 68.6603 341.181 47.1476C305.205 -15.3525 248.533 -1.08618 224.694 13.8595C185.251 -8.96661 150.829 4.34861 138.548 13.8595C79.6005 -20.3797 36.3289 21.7852 22.0615 47.1476Z" stroke="#59A9C2" stroke-width="2"/>
</svg>
