<svg width="54" height="41" viewBox="0 0 54 41" fill="none" xmlns="http://www.w3.org/2000/svg">
<path d="M27.238 16.9979C21.3664 16.9981 17.0916 20.9165 17.0916 25.204C17.0916 29.4914 21.3665 33.4099 27.238 33.4101C33.1098 33.4101 37.3854 29.4915 37.3855 25.204C37.3855 20.9164 33.1098 16.9979 27.238 16.9979Z" fill="#FCE3E2" stroke="#4A3728" stroke-width="3"/>
<path d="M10.0454 15.4727C7.86627 15.4727 6.27612 17.0992 6.27588 18.8946C6.27588 20.6902 7.8661 22.3174 10.0454 22.3174C12.2245 22.3173 13.814 20.6901 13.814 18.8946C13.8137 17.0993 12.2244 15.4729 10.0454 15.4727Z" fill="#FCE3E2" stroke="#4A3728" stroke-width="3"/>
<path d="M18.2261 5.76679C15.8005 5.76679 14.3182 7.35688 14.3179 8.77265C14.3179 10.1885 15.8003 11.7795 18.2261 11.7795C20.6517 11.7793 22.1333 10.1885 22.1333 8.77265C22.133 7.35695 20.6514 5.76695 18.2261 5.76679Z" fill="#FCE3E2" stroke="#4A3728" stroke-width="3"/>
<path d="M33.6167 5.90545C30.9621 5.90545 29.4315 7.55726 29.4312 8.91131C29.4312 10.2655 30.9618 11.9181 33.6167 11.9181C36.2714 11.918 37.8013 10.2654 37.8013 8.91131C37.8009 7.55731 36.2711 5.90559 33.6167 5.90545Z" fill="#FCE3E2" stroke="#4A3728" stroke-width="3"/>
<path d="M44.7788 16.582C42.6916 16.582 41.3563 18.019 41.356 19.3798C41.356 20.7408 42.6913 22.1786 44.7788 22.1786C46.8661 22.1785 48.2007 20.7407 48.2007 19.3798C48.2004 18.0191 46.8658 16.5822 44.7788 16.582Z" fill="#FCE3E2" stroke="#4A3728" stroke-width="3"/>
<path d="M26.6838 39.3468C39.662 40.3451 46.8813 30.9812 48.8687 26.1745C59.268 14.3887 42.9065 11.3383 42.9065 11.3383C37.4581 -4.60719 26.6838 5.37605 26.6838 5.09873C12.8182 -5.43913 9.76774 10.5063 9.76774 10.645C-7.1483 16.1912 7.13327 28.1156 7.13327 28.1156C10.9047 36.9896 21.7384 39.2543 26.6838 39.3468Z" stroke="#4A3728" stroke-width="3"/>
</svg>
