<svg width="384" height="46" viewBox="0 0 384 46" fill="none" xmlns="http://www.w3.org/2000/svg">
<path opacity="0.6" d="M32 25C27.5817 25 24 28.5817 24 33C24 37.4183 27.5817 41 32 41V33L32 25ZM32.1 33V41H33.4054L34.6431 40.585L32.1 33ZM36.16 31.6388L40.6304 25.0044L37.3581 22.7994L33.6169 24.0537L36.16 31.6388ZM40.32 34.4419L35.8496 41.0763L40.3202 44.0888L44.7908 41.0761L40.32 34.4419ZM44.48 31.6385L45.3111 23.6818L42.4199 23.3798L40.0092 25.0043L44.48 31.6385ZM48.64 32.073L49.882 24.17L49.6772 24.1378L49.4711 24.1163L48.64 32.073ZM52.8 32.7267L51.558 40.6297L51.7927 40.6666L52.0291 40.6895L52.8 32.7267ZM56.96 33.1295L56.1891 41.0923L56.4995 41.1223L56.8113 41.1281L56.96 33.1295ZM61.12 33.2068L61.8291 25.2383L61.5494 25.2134L61.2687 25.2082L61.12 33.2068ZM65.28 33.577L64.5709 41.5455L65.4788 41.6263L66.3817 41.5008L65.28 33.577ZM69.44 32.9986L70.5417 40.9224L70.7812 40.8891L71.0182 40.8414L69.44 32.9986ZM73.6 32.1615L75.4837 24.3865L73.7603 23.9689L72.0218 24.3187L73.6 32.1615ZM77.76 33.1694L75.8762 40.9445L78.1123 41.4862L80.2945 40.7573L77.76 33.1694ZM81.92 31.7799L84.912 24.3605L82.1798 23.2587L79.3855 24.192L81.92 31.7799ZM86.08 33.4575L83.088 40.8769L83.8483 41.1836L84.6551 41.3296L86.08 33.4575ZM90.24 34.2105L88.8151 42.0826L90.5402 42.3948L92.2379 41.957L90.24 34.2105ZM94.4 33.1376L96.3979 40.8841L96.7236 40.8001L97.0411 40.6891L94.4 33.1376ZM98.56 31.6827L101.783 24.3605L98.896 23.09L95.9189 24.1312L98.56 31.6827ZM102.72 33.5137L99.4972 40.8358L102.524 42.1679L105.608 40.9744L102.72 33.5137ZM106.88 31.9036L108.128 24.0015L106.001 23.6656L103.992 24.4429L106.88 31.9036ZM111.04 32.5605L109.792 40.4626L110.467 40.5691L111.15 40.5597L111.04 32.5605ZM115.2 32.5033L118.402 25.1722L116.818 24.4803L115.09 24.504L115.2 32.5033ZM119.36 34.3204L116.158 41.6515L119.32 43.0328L122.495 41.6807L119.36 34.3204ZM123.52 32.5487L124.956 24.6786L122.594 24.2476L120.385 25.1884L123.52 32.5487ZM127.68 33.3078L126.244 41.1779L127.289 41.3687L128.348 41.2799L127.68 33.3078ZM131.84 32.9591L132.508 40.9312L132.869 40.901L133.225 40.8384L131.84 32.9591ZM136 32.228L137.519 24.3736L136.07 24.0932L134.615 24.3488L136 32.228ZM140.16 33.0326L138.641 40.8871L138.846 40.9267L139.053 40.9556L140.16 33.0326ZM144.32 33.6141L143.213 41.5371L144.103 41.6615L144.998 41.5853L144.32 33.6141ZM148.48 33.2601L150.009 25.4077L148.914 25.1943L147.802 25.2889L148.48 33.2601ZM152.64 34.0704L151.111 41.9228L152.772 42.2464L154.422 41.8693L152.64 34.0704ZM156.8 33.1197L156.305 25.135L155.654 25.1754L155.018 25.3208L156.8 33.1197ZM160.96 32.8616L164.264 25.5759L162.451 24.7538L160.465 24.877L160.96 32.8616ZM165.12 34.7483L161.816 42.034L166.186 44.0162L169.993 41.0931L165.12 34.7483ZM169.28 31.5535L171.911 23.9984L167.832 22.5782L164.407 25.2086L169.28 31.5535ZM173.44 33.002L170.809 40.5571L171.229 40.7031L171.662 40.8019L173.44 33.002ZM177.6 33.9505L175.822 41.7503L178.691 42.4045L181.301 41.0431L177.6 33.9505ZM181.76 31.78L186.383 25.2507L182.393 22.4263L178.059 24.6873L181.76 31.78ZM185.92 34.7252L181.297 41.2545L183.556 42.8539L186.321 42.7152L185.92 34.7252ZM190.08 34.5166L190.481 42.5065L190.759 42.4926L191.036 42.4593L190.08 34.5166ZM194.24 34.0161L195.454 26.1087L194.371 25.9426L193.284 26.0734L194.24 34.0161ZM198.4 34.6546L197.186 42.562L198.864 42.8195L200.502 42.3736L198.4 34.6546ZM202.56 33.5219L203.432 25.5696L201.923 25.4042L200.458 25.8029L202.56 33.5219ZM206.72 33.978L205.848 41.9303L206.401 41.991L206.958 41.9744L206.72 33.978ZM210.88 33.8543L211.118 41.8508L212.643 41.8054L214.044 41.202L210.88 33.8543ZM215.04 32.0629L219.085 25.1608L215.593 23.1145L211.876 24.7152L215.04 32.0629ZM219.2 34.5008L215.155 41.4029L218.045 43.0965L221.28 42.2258L219.2 34.5008ZM223.36 33.3809L224.671 25.4891L222.958 25.2043L221.28 25.6559L223.36 33.3809ZM227.52 34.0722L226.208 41.964L229.267 42.4723L231.869 40.7869L227.52 34.0722ZM231.68 31.3779L232.509 23.421L229.701 23.1284L227.331 24.6632L231.68 31.3779ZM235.84 31.8113L237.104 23.9119L236.887 23.8772L236.669 23.8544L235.84 31.8113ZM240 32.4772L242.303 24.8159L241.792 24.6621L241.264 24.5777L240 32.4772ZM244.16 33.7278L241.857 41.3891L243.191 41.7902L244.583 41.7166L244.16 33.7278ZM248.32 33.5076L248.774 25.5205L248.336 25.4956L247.897 25.5188L248.32 33.5076ZM252.48 33.7442L252.026 41.7313L253.67 41.8249L255.218 41.2611L252.48 33.7442ZM256.64 32.229L257.915 24.3312L255.859 23.9994L253.902 24.7121L256.64 32.229ZM260.8 32.9004L262.866 25.1719L262.475 25.0672L262.075 25.0026L260.8 32.9004ZM264.96 34.0126L262.894 41.7412L265.11 42.3337L267.303 41.6618L264.96 34.0126ZM269.12 32.7383L269.337 24.7413L268.029 24.7057L266.777 25.0892L269.12 32.7383ZM273.28 32.8514L276.384 25.4781L274.999 24.8952L273.497 24.8544L273.28 32.8514ZM277.44 34.6026L274.336 41.9759L276.798 43.0122L279.388 42.3618L277.44 34.6026ZM281.6 33.5582L282.376 25.5959L280.996 25.4615L279.652 25.799L281.6 33.5582ZM285.76 33.9634L284.984 41.9258L287.546 42.1753L289.773 40.8843L285.76 33.9634ZM289.92 31.5515L290.981 23.6222L288.272 23.2596L285.907 24.6306L289.92 31.5515ZM294.08 32.1083L297.492 24.8724L296.37 24.3435L295.141 24.179L294.08 32.1083ZM298.24 34.0699L294.828 41.3058L296.335 42.0163L298 42.0663L298.24 34.0699ZM302.4 34.1947L302.16 42.1911L303.916 42.2438L305.532 41.5561L302.4 34.1947ZM306.56 32.4247L309.065 24.8271L306.202 23.8829L303.428 25.0633L306.56 32.4247ZM310.72 33.7965L308.215 41.3941L310.916 42.285L313.574 41.2701L310.72 33.7965ZM314.88 32.2078L313.171 24.3925L312.586 24.5205L312.026 24.7343L314.88 32.2078ZM319.04 31.2982L319.229 23.3005L318.269 23.2778L317.331 23.4829L319.04 31.2982ZM323.2 31.3965L327.261 24.5041L325.469 23.4479L323.389 23.3987L323.2 31.3965ZM327.36 33.8478L323.299 40.7402L325.164 41.8393L327.329 41.8477L327.36 33.8478ZM331.52 33.8639L331.489 41.8638L333.004 41.8697L334.416 41.3214L331.52 33.8639ZM335.68 32.2486L338.572 24.7899L335.678 23.6675L332.784 24.7911L335.68 32.2486ZM339.84 33.8619L336.948 41.3207L337.59 41.5699L338.266 41.7055L339.84 33.8619ZM344 34.6968L342.426 42.5404L344.449 42.9465L346.416 42.3231L344 34.6968ZM348.16 33.3787L347.98 25.3807L346.835 25.4064L345.743 25.7524L348.16 33.3787ZM352 33.2923L352.18 41.2903L360 41.1145V33.2923H352ZM360 33C360 28.5817 356.418 25 352 25C347.582 25 344 28.5817 344 33H352H360ZM32 33V41H32.1V33V25H32L32 33ZM32.1 33L34.6431 40.585L38.7031 39.2238L36.16 31.6388L33.6169 24.0537L29.5569 25.415L32.1 33ZM36.16 31.6388L31.6896 38.2731L35.8496 41.0763L40.32 34.4419L44.7904 27.8075L40.6304 25.0044L36.16 31.6388ZM40.32 34.4419L44.7908 41.0761L48.9508 38.2727L44.48 31.6385L40.0092 25.0043L35.8492 27.8077L40.32 34.4419ZM44.48 31.6385L43.6489 39.5952L47.8089 40.0297L48.64 32.073L49.4711 24.1163L45.3111 23.6818L44.48 31.6385ZM48.64 32.073L47.398 39.976L51.558 40.6297L52.8 32.7267L54.042 24.8237L49.882 24.17L48.64 32.073ZM52.8 32.7267L52.0291 40.6895L56.1891 41.0923L56.96 33.1295L57.7309 25.1667L53.5709 24.764L52.8 32.7267ZM56.96 33.1295L56.8113 41.1281L60.9713 41.2054L61.12 33.2068L61.2687 25.2082L57.1087 25.1309L56.96 33.1295ZM61.12 33.2068L60.4109 41.1753L64.5709 41.5455L65.28 33.577L65.9891 25.6085L61.8291 25.2383L61.12 33.2068ZM65.28 33.577L66.3817 41.5008L70.5417 40.9224L69.44 32.9986L68.3383 25.0748L64.1783 25.6532L65.28 33.577ZM69.44 32.9986L71.0182 40.8414L75.1782 40.0043L73.6 32.1615L72.0218 24.3187L67.8618 25.1558L69.44 32.9986ZM73.6 32.1615L71.7162 39.9366L75.8762 40.9445L77.76 33.1694L79.6437 25.3943L75.4837 24.3865L73.6 32.1615ZM77.76 33.1694L80.2945 40.7573L84.4545 39.3678L81.92 31.7799L79.3855 24.192L75.2255 25.5815L77.76 33.1694ZM81.92 31.7799L78.928 39.1993L83.088 40.8769L86.08 33.4575L89.072 26.0381L84.912 24.3605L81.92 31.7799ZM86.08 33.4575L84.6551 41.3296L88.8151 42.0826L90.24 34.2105L91.6649 26.3384L87.5049 25.5854L86.08 33.4575ZM90.24 34.2105L92.2379 41.957L96.3979 40.8841L94.4 33.1376L92.4021 25.3911L88.2421 26.464L90.24 34.2105ZM94.4 33.1376L97.0411 40.6891L101.201 39.2341L98.56 31.6827L95.9189 24.1312L91.7589 25.5861L94.4 33.1376ZM98.56 31.6827L95.3372 39.0048L99.4972 40.8358L102.72 33.5137L105.943 26.1915L101.783 24.3605L98.56 31.6827ZM102.72 33.5137L105.608 40.9744L109.768 39.3643L106.88 31.9036L103.992 24.4429L99.8325 26.0529L102.72 33.5137ZM106.88 31.9036L105.632 39.8057L109.792 40.4626L111.04 32.5605L112.288 24.6583L108.128 24.0015L106.88 31.9036ZM111.04 32.5605L111.15 40.5597L115.31 40.5025L115.2 32.5033L115.09 24.504L110.93 24.5612L111.04 32.5605ZM115.2 32.5033L111.998 39.8344L116.158 41.6515L119.36 34.3204L122.562 26.9893L118.402 25.1722L115.2 32.5033ZM119.36 34.3204L122.495 41.6807L126.655 39.9089L123.52 32.5487L120.385 25.1884L116.225 26.9602L119.36 34.3204ZM123.52 32.5487L122.084 40.4187L126.244 41.1779L127.68 33.3078L129.116 25.4378L124.956 24.6786L123.52 32.5487ZM127.68 33.3078L128.348 41.2799L132.508 40.9312L131.84 32.9591L131.172 24.9871L127.012 25.3358L127.68 33.3078ZM131.84 32.9591L133.225 40.8384L137.385 40.1072L136 32.228L134.615 24.3488L130.455 25.0799L131.84 32.9591ZM136 32.228L134.481 40.0824L138.641 40.8871L140.16 33.0326L141.679 25.1782L137.519 24.3736L136 32.228ZM140.16 33.0326L139.053 40.9556L143.213 41.5371L144.32 33.6141L145.427 25.6911L141.267 25.1097L140.16 33.0326ZM144.32 33.6141L144.998 41.5853L149.158 41.2313L148.48 33.2601L147.802 25.2889L143.642 25.6429L144.32 33.6141ZM148.48 33.2601L146.951 41.1125L151.111 41.9228L152.64 34.0704L154.169 26.218L150.009 25.4077L148.48 33.2601ZM152.64 34.0704L154.422 41.8693L158.582 40.9186L156.8 33.1197L155.018 25.3208L150.858 26.2714L152.64 34.0704ZM156.8 33.1197L157.295 41.1043L161.455 40.8463L160.96 32.8616L160.465 24.877L156.305 25.135L156.8 33.1197ZM160.96 32.8616L157.656 40.1474L161.816 42.034L165.12 34.7483L168.424 27.4625L164.264 25.5759L160.96 32.8616ZM165.12 34.7483L169.993 41.0931L174.153 37.8983L169.28 31.5535L164.407 25.2086L160.247 28.4035L165.12 34.7483ZM169.28 31.5535L166.649 39.1085L170.809 40.5571L173.44 33.002L176.071 25.4469L171.911 23.9984L169.28 31.5535ZM173.44 33.002L171.662 40.8019L175.822 41.7503L177.6 33.9505L179.378 26.1506L175.218 25.2022L173.44 33.002ZM177.6 33.9505L181.301 41.0431L185.461 38.8727L181.76 31.78L178.059 24.6873L173.899 26.8578L177.6 33.9505ZM181.76 31.78L177.137 38.3093L181.297 41.2545L185.92 34.7252L190.543 28.196L186.383 25.2507L181.76 31.78ZM185.92 34.7252L186.321 42.7152L190.481 42.5065L190.08 34.5166L189.679 26.5266L185.519 26.7353L185.92 34.7252ZM190.08 34.5166L191.036 42.4593L195.196 41.9588L194.24 34.0161L193.284 26.0734L189.124 26.5738L190.08 34.5166ZM194.24 34.0161L193.026 41.9235L197.186 42.562L198.4 34.6546L199.614 26.7472L195.454 26.1087L194.24 34.0161ZM198.4 34.6546L200.502 42.3736L204.662 41.2409L202.56 33.5219L200.458 25.8029L196.298 26.9356L198.4 34.6546ZM202.56 33.5219L201.688 41.4743L205.848 41.9303L206.72 33.978L207.592 26.0256L203.432 25.5696L202.56 33.5219ZM206.72 33.978L206.958 41.9744L211.118 41.8508L210.88 33.8543L210.642 25.8578L206.482 25.9815L206.72 33.978ZM210.88 33.8543L214.044 41.202L218.204 39.4106L215.04 32.0629L211.876 24.7152L207.716 26.5066L210.88 33.8543ZM215.04 32.0629L210.995 38.965L215.155 41.4029L219.2 34.5008L223.245 27.5987L219.085 25.1608L215.04 32.0629ZM219.2 34.5008L221.28 42.2258L225.44 41.1059L223.36 33.3809L221.28 25.6559L217.12 26.7758L219.2 34.5008ZM223.36 33.3809L222.048 41.2727L226.208 41.964L227.52 34.0722L228.831 26.1805L224.671 25.4891L223.36 33.3809ZM227.52 34.0722L231.869 40.7869L236.029 38.0925L231.68 31.3779L227.331 24.6632L223.171 27.3576L227.52 34.0722ZM231.68 31.3779L230.851 39.3348L235.011 39.7682L235.84 31.8113L236.669 23.8544L232.509 23.421L231.68 31.3779ZM235.84 31.8113L234.576 39.7108L238.736 40.3766L240 32.4772L241.264 24.5777L237.104 23.9119L235.84 31.8113ZM240 32.4772L237.697 40.1384L241.857 41.3891L244.16 33.7278L246.463 26.0665L242.303 24.8159L240 32.4772ZM244.16 33.7278L244.583 41.7166L248.743 41.4965L248.32 33.5076L247.897 25.5188L243.737 25.739L244.16 33.7278ZM248.32 33.5076L247.866 41.4947L252.026 41.7313L252.48 33.7442L252.934 25.7571L248.774 25.5205L248.32 33.5076ZM252.48 33.7442L255.218 41.2611L259.378 39.7459L256.64 32.229L253.902 24.7121L249.742 26.2273L252.48 33.7442ZM256.64 32.229L255.365 40.1268L259.525 40.7982L260.8 32.9004L262.075 25.0026L257.915 24.3312L256.64 32.229ZM260.8 32.9004L258.734 40.6289L262.894 41.7412L264.96 34.0126L267.026 26.2841L262.866 25.1719L260.8 32.9004ZM264.96 34.0126L267.303 41.6618L271.463 40.3874L269.12 32.7383L266.777 25.0892L262.617 26.3635L264.96 34.0126ZM269.12 32.7383L268.903 40.7353L273.063 40.8485L273.28 32.8514L273.497 24.8544L269.337 24.7413L269.12 32.7383ZM273.28 32.8514L270.176 40.2247L274.336 41.9759L277.44 34.6026L280.544 27.2293L276.384 25.4781L273.28 32.8514ZM277.44 34.6026L279.388 42.3618L283.548 41.3174L281.6 33.5582L279.652 25.799L275.492 26.8434L277.44 34.6026ZM281.6 33.5582L280.824 41.5205L284.984 41.9258L285.76 33.9634L286.536 26.0011L282.376 25.5959L281.6 33.5582ZM285.76 33.9634L289.773 40.8843L293.933 38.4724L289.92 31.5515L285.907 24.6306L281.747 27.0426L285.76 33.9634ZM289.92 31.5515L288.859 39.4808L293.019 40.0376L294.08 32.1083L295.141 24.179L290.981 23.6222L289.92 31.5515ZM294.08 32.1083L290.668 39.3442L294.828 41.3058L298.24 34.0699L301.652 26.834L297.492 24.8724L294.08 32.1083ZM298.24 34.0699L298 42.0663L302.16 42.1911L302.4 34.1947L302.64 26.1983L298.48 26.0735L298.24 34.0699ZM302.4 34.1947L305.532 41.5561L309.692 39.786L306.56 32.4247L303.428 25.0633L299.268 26.8334L302.4 34.1947ZM306.56 32.4247L304.055 40.0222L308.215 41.3941L310.72 33.7965L313.225 26.199L309.065 24.8271L306.56 32.4247ZM310.72 33.7965L313.574 41.2701L317.734 39.6814L314.88 32.2078L312.026 24.7343L307.866 26.323L310.72 33.7965ZM314.88 32.2078L316.589 40.0232L320.749 39.1136L319.04 31.2982L317.331 23.4829L313.171 24.3925L314.88 32.2078ZM319.04 31.2982L318.851 39.296L323.011 39.3943L323.2 31.3965L323.389 23.3987L319.229 23.3005L319.04 31.2982ZM323.2 31.3965L319.139 38.289L323.299 40.7402L327.36 33.8478L331.421 26.9553L327.261 24.5041L323.2 31.3965ZM327.36 33.8478L327.329 41.8477L331.489 41.8638L331.52 33.8639L331.551 25.8639L327.391 25.8478L327.36 33.8478ZM331.52 33.8639L334.416 41.3214L338.576 39.7062L335.68 32.2486L332.784 24.7911L328.624 26.4063L331.52 33.8639ZM335.68 32.2486L332.788 39.7074L336.948 41.3207L339.84 33.8619L342.732 26.4031L338.572 24.7899L335.68 32.2486ZM339.84 33.8619L338.266 41.7055L342.426 42.5404L344 34.6968L345.574 26.8532L341.414 26.0183L339.84 33.8619ZM344 34.6968L346.416 42.3231L350.576 41.005L348.16 33.3787L345.743 25.7524L341.584 27.0705L344 34.6968ZM348.16 33.3787L348.34 41.3767L352.18 41.2903L352 33.2923L351.82 25.2944L347.98 25.3807L348.16 33.3787ZM352 33.2923H360V33H352H344V33.2923H352Z" fill="#FF8FA3"/>
<path d="M29.4688 27.4668V4.73633C29.4688 3.6582 29.8431 2.74479 30.5918 1.99609C31.3704 1.21745 32.2988 0.828125 33.377 0.828125H42.2266C42.9154 0.828125 43.4993 1.06771 43.9785 1.54688C44.4577 2.02604 44.6973 2.61003 44.6973 3.29883C44.6973 3.98763 44.4577 4.57161 43.9785 5.05078C43.4993 5.52995 42.9154 5.76953 42.2266 5.76953H35.3535C35.054 5.76953 34.9043 5.91927 34.9043 6.21875V27.4668C34.9043 28.2155 34.6348 28.8594 34.0957 29.3984C33.5866 29.9375 32.9577 30.207 32.209 30.207C31.4603 30.207 30.8164 29.9375 30.2773 29.3984C29.7383 28.8594 29.4688 28.2155 29.4688 27.4668ZM48.1562 25.7598C48.1562 24.9212 48.4408 24.2174 49.0098 23.6484C49.6087 23.0495 50.3275 22.75 51.166 22.75H76.4121C77.2507 22.75 77.9694 23.0345 78.5684 23.6035C79.1973 24.2624 79.4818 24.9811 79.4219 25.7598L79.2422 27.4219C78.9427 29.2487 78.3887 31.1055 77.5801 32.9922C76.7116 34.8789 75.4987 36.4811 73.9414 37.7988C72.4141 39.0866 70.6022 39.7904 68.5059 39.9102H59.3418C58.5332 39.8802 57.8444 39.5957 57.2754 39.0566C56.7363 38.4876 56.4518 37.7988 56.4219 36.9902C56.4219 36.1517 56.6914 35.4329 57.2305 34.834C57.7995 34.235 58.5033 33.9206 59.3418 33.8906H67.7871C68.9251 33.8307 69.9134 33.3965 70.752 32.5879C71.6204 31.7793 72.2344 30.8359 72.5938 29.7578C72.8333 29.1289 72.6536 28.7995 72.0547 28.7695H51.166C50.3275 28.7695 49.6237 28.4701 49.0547 27.8711C48.4557 27.3021 48.1562 26.5983 48.1562 25.7598ZM48.1562 16.416C48.1562 15.5775 48.4408 14.8737 49.0098 14.3047C49.6087 13.7057 50.3275 13.4062 51.166 13.4062H76.0527C76.8913 13.4062 77.61 13.6908 78.209 14.2598C78.778 14.8587 79.0625 15.5775 79.0625 16.416C79.0625 17.2546 78.763 17.9733 78.1641 18.5723C77.5951 19.1413 76.8913 19.4258 76.0527 19.4258H51.166C50.3275 19.4258 49.6237 19.1263 49.0547 18.5273C48.4557 17.9583 48.1562 17.2546 48.1562 16.416ZM113.473 16.6406L112.574 18.9766C111.257 22.3906 109.699 24.9661 107.902 26.7031C106.495 28.0508 104.997 28.9193 103.41 29.3086V37.6191C103.23 39.416 102.242 40.3893 100.445 40.5391C99.6068 40.5391 98.873 40.2695 98.2441 39.7305C97.6452 39.1615 97.3457 38.4577 97.3457 37.6191V29.4883H86.834C86.0254 29.4583 85.3366 29.1738 84.7676 28.6348C84.2285 28.0658 83.944 27.377 83.9141 26.5684C83.9141 25.7298 84.1836 25.0111 84.7227 24.4121C85.2917 23.8132 85.9954 23.4987 86.834 23.4688H100.49C101.628 23.4089 102.691 22.9746 103.68 22.166C104.698 21.3574 105.462 20.444 105.971 19.4258C106.48 18.3776 106.944 17.2695 107.363 16.1016L107.902 14.6641C108.112 14.0352 108.411 13.526 108.801 13.1367C109.22 12.7174 109.849 12.5078 110.688 12.5078C111.496 12.5078 112.185 12.8073 112.754 13.4062C113.353 14.0052 113.652 14.724 113.652 15.5625C113.652 15.9518 113.592 16.3112 113.473 16.6406ZM118.684 16.416C118.684 15.5775 118.968 14.8737 119.537 14.3047C120.136 13.7057 120.855 13.4062 121.693 13.4062H146.221C147.059 13.4062 147.778 13.6908 148.377 14.2598C149.006 14.9186 149.29 15.6374 149.23 16.416L147.793 26.9727C147.493 29.099 146.939 31.1055 146.131 32.9922C145.262 34.8789 144.049 36.4811 142.492 37.7988C140.965 39.0866 139.153 39.7904 137.057 39.9102H128.611C127.803 39.8802 127.114 39.5957 126.545 39.0566C126.006 38.4876 125.721 37.7988 125.691 36.9902C125.691 36.1517 125.961 35.4329 126.5 34.834C127.069 34.235 127.773 33.9206 128.611 33.8906H136.338C137.476 33.8307 138.464 33.3965 139.303 32.5879C140.171 31.7793 140.77 30.8659 141.1 29.8477C141.429 28.7995 141.669 27.6615 141.818 26.4336L142.627 20.5488C142.717 19.8301 142.462 19.4557 141.863 19.4258H121.693C120.855 19.4258 120.151 19.1263 119.582 18.5273C118.983 17.9583 118.684 17.2546 118.684 16.416ZM178.969 13.4062C180.496 13.4362 181.859 13.9154 183.057 14.8438C184.255 15.7721 185.213 16.8802 185.932 18.168C186.68 19.4557 187.234 20.8184 187.594 22.2559C187.953 23.6934 188.133 25.1608 188.133 26.6582C188.133 28.6348 187.818 30.5814 187.189 32.498C186.59 34.3848 185.587 36.0618 184.18 37.5293C182.802 38.9967 181.065 39.7904 178.969 39.9102H164.639C162.542 39.8203 160.79 39.0417 159.383 37.5742C157.975 36.1068 156.972 34.4147 156.373 32.498C155.804 30.5814 155.52 28.6348 155.52 26.6582C155.52 24.6816 155.819 22.75 156.418 20.8633C157.017 18.9466 158.005 17.2546 159.383 15.7871C160.79 14.2897 162.542 13.4961 164.639 13.4062H178.969ZM177.441 33.8906C178.579 33.8307 179.523 33.4115 180.271 32.6328C181.05 31.8242 181.604 30.8958 181.934 29.8477C182.263 28.7995 182.428 27.7363 182.428 26.6582C182.428 25.5801 182.248 24.5319 181.889 23.5137C181.559 22.4655 181.02 21.5371 180.271 20.7285C179.523 19.9199 178.579 19.4857 177.441 19.4258H166.031C164.893 19.4857 163.95 19.9199 163.201 20.7285C162.452 21.5371 161.898 22.4655 161.539 23.5137C161.21 24.5319 161.045 25.5801 161.045 26.6582C161.045 27.7363 161.21 28.7995 161.539 29.8477C161.868 30.8958 162.408 31.8242 163.156 32.6328C163.935 33.4115 164.893 33.8307 166.031 33.8906H177.441ZM205.338 13.4062H224.43C225.268 13.4062 225.987 13.6908 226.586 14.2598C227.215 14.9186 227.499 15.6374 227.439 16.416L226.002 26.9727C225.702 29.099 225.148 31.1055 224.34 32.9922C223.471 34.8789 222.258 36.4811 220.701 37.7988C219.174 39.0866 217.362 39.7904 215.266 39.9102H211.133C210.324 39.8802 209.635 39.5957 209.066 39.0566C208.527 38.4876 208.243 37.7988 208.213 36.9902C208.213 36.1517 208.482 35.4329 209.021 34.834C209.59 34.235 210.294 33.9206 211.133 33.8906H214.547C215.685 33.8307 216.673 33.3965 217.512 32.5879C218.38 31.7793 218.979 30.8659 219.309 29.8477C219.638 28.7995 219.878 27.6615 220.027 26.4336L220.836 20.5488C220.926 19.8301 220.671 19.4557 220.072 19.4258H207.404C207.105 20.7135 206.701 21.9414 206.191 23.1094C205.323 24.9961 204.11 26.5983 202.553 27.916C201.025 29.2038 199.214 29.9076 197.117 30.0273H196.129C195.32 29.9974 194.632 29.7129 194.062 29.1738C193.523 28.6048 193.239 27.916 193.209 27.1074C193.209 26.2689 193.479 25.5501 194.018 24.9512C194.587 24.3522 195.29 24.0378 196.129 24.0078H196.398C197.536 23.9479 198.525 23.5137 199.363 22.7051C200.232 21.8965 200.831 20.9831 201.16 19.9648C201.49 18.9167 201.729 17.7786 201.879 16.5508V16.3262C202.029 15.4876 202.433 14.7839 203.092 14.2148C203.751 13.6758 204.499 13.4062 205.338 13.4062ZM214.143 8.375C214.143 7.47656 214.457 6.71289 215.086 6.08398C215.715 5.45508 216.479 5.14062 217.377 5.14062C218.275 5.14062 219.039 5.45508 219.668 6.08398C220.297 6.71289 220.611 7.47656 220.611 8.375C220.611 9.27344 220.297 10.0371 219.668 10.666C219.039 11.2949 218.275 11.6094 217.377 11.6094C216.479 11.6094 215.715 11.2949 215.086 10.666C214.457 10.0371 214.143 9.27344 214.143 8.375ZM221.869 8.375C221.869 7.47656 222.184 6.71289 222.812 6.08398C223.441 5.45508 224.205 5.14062 225.104 5.14062C226.002 5.14062 226.766 5.45508 227.395 6.08398C228.023 6.71289 228.338 7.47656 228.338 8.375C228.338 9.27344 228.023 10.0371 227.395 10.666C226.766 11.2949 226.002 11.6094 225.104 11.6094C224.205 11.6094 223.441 11.2949 222.812 10.666C222.184 10.0371 221.869 9.27344 221.869 8.375ZM233.549 16.416C233.549 15.5775 233.833 14.8737 234.402 14.3047C235.001 13.7057 235.72 13.4062 236.559 13.4062H256.324C258.361 13.4961 260.053 14.0801 261.4 15.1582C262.748 16.2064 263.721 17.4043 264.32 18.752C264.919 20.0996 265.219 21.4622 265.219 22.8398C265.219 24.2773 264.919 25.6699 264.32 27.0176C263.751 28.3652 262.778 29.5781 261.4 30.6562C260.053 31.7044 258.331 32.2135 256.234 32.1836H253.719C252.88 32.1836 252.176 31.8841 251.607 31.2852C251.008 30.7161 250.709 30.0124 250.709 29.1738C250.709 28.3353 250.993 27.6315 251.562 27.0625C252.161 26.4635 252.88 26.1641 253.719 26.1641H256.504C257.073 26.1641 257.537 25.9844 257.896 25.625C258.286 25.2357 258.57 24.8014 258.75 24.3223C258.93 23.8132 259.02 23.304 259.02 22.7949C259.02 22.3158 258.93 21.8366 258.75 21.3574C258.57 20.8483 258.286 20.4141 257.896 20.0547C257.537 19.6654 257.073 19.4557 256.504 19.4258H236.559C235.72 19.4258 235.016 19.1263 234.447 18.5273C233.848 17.9583 233.549 17.2546 233.549 16.416ZM247.025 21.6719C247.834 21.7018 248.478 22.0013 248.957 22.5703C249.466 23.1094 249.691 23.7832 249.631 24.5918L249.361 26.9727C249.062 29.099 248.508 31.1055 247.699 32.9922C246.831 34.8789 245.618 36.4811 244.061 37.7988C242.533 39.0866 240.721 39.7904 238.625 39.9102H236.648C235.84 39.8802 235.151 39.5957 234.582 39.0566C234.043 38.4876 233.758 37.7988 233.729 36.9902C233.729 36.1517 233.998 35.4329 234.537 34.834C235.106 34.235 235.81 33.9206 236.648 33.8906H237.906C239.044 33.8307 240.033 33.3965 240.871 32.5879C241.74 31.7793 242.339 30.8659 242.668 29.8477C242.997 28.7995 243.237 27.6615 243.387 26.4336L243.566 24.5918C243.716 23.7533 244.12 23.0645 244.779 22.5254C245.438 21.9564 246.187 21.6719 247.025 21.6719ZM270.924 16.416C270.924 15.5775 271.208 14.8737 271.777 14.3047C272.376 13.7057 273.095 13.4062 273.934 13.4062H294.238C293.729 12.5977 293.475 11.6842 293.475 10.666C293.475 9.28841 293.954 8.12044 294.912 7.16211C295.9 6.17383 297.098 5.67969 298.506 5.67969C299.883 5.67969 301.051 6.17383 302.01 7.16211C302.998 8.12044 303.492 9.28841 303.492 10.666C303.492 12.0736 303.013 13.2565 302.055 14.2148C301.755 14.5143 301.456 14.7689 301.156 14.9785C301.396 15.4277 301.501 15.9069 301.471 16.416L300.033 26.9727C299.734 29.099 299.18 31.1055 298.371 32.9922C297.503 34.8789 296.29 36.4811 294.732 37.7988C293.205 39.0866 291.393 39.7904 289.297 39.9102H280.852C280.043 39.8802 279.354 39.5957 278.785 39.0566C278.246 38.4876 277.962 37.7988 277.932 36.9902C277.932 36.1517 278.201 35.4329 278.74 34.834C279.309 34.235 280.013 33.9206 280.852 33.8906H288.578C289.716 33.8307 290.704 33.3965 291.543 32.5879C292.411 31.7793 293.01 30.8659 293.34 29.8477C293.669 28.7995 293.909 27.6615 294.059 26.4336L294.867 20.5488C294.957 19.8301 294.702 19.4557 294.104 19.4258H273.934C273.095 19.4258 272.391 19.1263 271.822 18.5273C271.223 17.9583 270.924 17.2546 270.924 16.416ZM295.9 10.666C295.9 11.3848 296.155 11.9987 296.664 12.5078C297.173 13.0169 297.787 13.2715 298.506 13.2715C299.195 13.2715 299.794 13.0169 300.303 12.5078C300.812 11.9987 301.066 11.3848 301.066 10.666C301.066 9.97721 300.812 9.37826 300.303 8.86914C299.794 8.36003 299.195 8.10547 298.506 8.10547C297.787 8.10547 297.173 8.36003 296.664 8.86914C296.155 9.37826 295.9 9.97721 295.9 10.666ZM311.219 12.6875C312.027 12.7174 312.716 13.0169 313.285 13.5859C313.854 14.125 314.154 14.7988 314.184 15.6074V28.3652C314.004 30.1621 313.016 31.1354 311.219 31.2852C310.38 31.2852 309.646 31.0156 309.018 30.4766C308.419 29.9076 308.119 29.2038 308.119 28.3652V15.6074C308.149 14.7689 308.464 14.0801 309.062 13.541C309.661 12.972 310.38 12.6875 311.219 12.6875ZM330.625 12.6875C331.434 12.7174 332.122 13.0169 332.691 13.5859C333.26 14.125 333.56 14.7988 333.59 15.6074V26.9727C333.56 29.099 333.26 31.1055 332.691 32.9922C332.092 34.8789 331.104 36.4811 329.727 37.7988C328.379 39.0866 326.657 39.7904 324.561 39.9102H321.686C320.877 39.8802 320.188 39.5957 319.619 39.0566C319.08 38.4876 318.796 37.7988 318.766 36.9902C318.766 36.1517 319.035 35.4329 319.574 34.834C320.143 34.235 320.847 33.9206 321.686 33.8906H323.033C324.171 33.8307 325.115 33.3965 325.863 32.5879C326.612 31.7793 327.076 30.8659 327.256 29.8477C327.465 28.7995 327.555 27.6615 327.525 26.4336V15.6074C327.555 14.7689 327.87 14.0801 328.469 13.541C329.068 12.972 329.786 12.6875 330.625 12.6875ZM354.029 17.584V40.3145C354.029 41.3926 353.64 42.306 352.861 43.0547C352.113 43.8333 351.199 44.2227 350.121 44.2227H341.227C340.538 44.2227 339.954 43.9831 339.475 43.5039C338.995 43.0247 338.756 42.4408 338.756 41.752C338.756 41.0632 338.995 40.4792 339.475 40C339.954 39.5208 340.538 39.2812 341.227 39.2812H348.1C348.399 39.2812 348.549 39.1315 348.549 38.832V17.584C348.549 16.8353 348.803 16.1914 349.312 15.6523C349.852 15.1133 350.495 14.8438 351.244 14.8438C352.023 14.8438 352.682 15.1133 353.221 15.6523C353.76 16.1914 354.029 16.8353 354.029 17.584Z" fill="#4A3728"/>
</svg>
