<svg width="175" height="35" viewBox="0 0 175 35" fill="none" xmlns="http://www.w3.org/2000/svg">
<path d="M16.0732 6.00879C16.5223 4.62683 18.4777 4.62682 18.9268 6.00879L20.5049 10.8643V10.8652C20.8397 11.8949 21.7991 12.5917 22.8818 12.5918H27.9883C29.4412 12.5919 30.0453 14.4515 28.8701 15.3057L24.7393 18.3066C23.863 18.9433 23.4964 20.0725 23.8311 21.1025L25.4082 25.958C25.8572 27.3398 24.2761 28.4893 23.1006 27.6357L18.9697 24.6338C18.0935 23.9972 16.9065 23.9972 16.0303 24.6338L11.8994 27.6357C10.7239 28.4893 9.14282 27.3398 9.5918 25.958L11.1689 21.1025C11.5036 20.0725 11.137 18.9432 10.2607 18.3066L6.12988 15.3057C4.95467 14.4515 5.55884 12.5919 7.01172 12.5918H12.1182C13.2011 12.5917 14.1605 11.8942 14.4951 10.8643L16.0732 6.00879Z" fill="#F6B93B" stroke="#4A3728"/>
<path d="M51.0732 6.00879C51.5223 4.62683 53.4777 4.62682 53.9268 6.00879L55.5049 10.8643V10.8652C55.8397 11.8949 56.7991 12.5917 57.8818 12.5918H62.9883C64.4412 12.5919 65.0453 14.4515 63.8701 15.3057L59.7393 18.3066C58.863 18.9433 58.4964 20.0725 58.8311 21.1025L60.4082 25.958C60.8572 27.3398 59.2761 28.4893 58.1006 27.6357L53.9697 24.6338C53.0935 23.9972 51.9065 23.9972 51.0303 24.6338L46.8994 27.6357C45.7239 28.4893 44.1428 27.3398 44.5918 25.958L46.1689 21.1025C46.5036 20.0725 46.137 18.9432 45.2607 18.3066L41.1299 15.3057C39.9547 14.4515 40.5588 12.5919 42.0117 12.5918H47.1182C48.2011 12.5917 49.1605 11.8942 49.4951 10.8643L51.0732 6.00879Z" fill="#F6B93B" stroke="#4A3728"/>
<path d="M86.0732 6.00879C86.5223 4.62683 88.4777 4.62682 88.9268 6.00879L90.5049 10.8643V10.8652C90.8397 11.8949 91.7991 12.5917 92.8818 12.5918H97.9883C99.4412 12.5919 100.045 14.4515 98.8701 15.3057L94.7393 18.3066C93.863 18.9433 93.4964 20.0725 93.8311 21.1025L95.4082 25.958C95.8572 27.3398 94.2761 28.4893 93.1006 27.6357L88.9697 24.6338C88.0935 23.9972 86.9065 23.9972 86.0303 24.6338L81.8994 27.6357C80.7239 28.4893 79.1428 27.3398 79.5918 25.958L81.1689 21.1025C81.5036 20.0725 81.137 18.9432 80.2607 18.3066L76.1299 15.3057C74.9547 14.4515 75.5588 12.5919 77.0117 12.5918H82.1182C83.2011 12.5917 84.1605 11.8942 84.4951 10.8643L86.0732 6.00879Z" fill="#F6B93B" stroke="#4A3728"/>
<path d="M121.073 6.00879C121.522 4.62683 123.478 4.62682 123.927 6.00879L125.505 10.8643V10.8652C125.84 11.8949 126.799 12.5917 127.882 12.5918H132.988C134.441 12.5919 135.045 14.4515 133.87 15.3057L129.739 18.3066C128.863 18.9433 128.496 20.0725 128.831 21.1025L130.408 25.958C130.857 27.3398 129.276 28.4893 128.101 27.6357L123.97 24.6338C123.094 23.9972 121.906 23.9972 121.03 24.6338L116.899 27.6357C115.724 28.4893 114.143 27.3398 114.592 25.958L116.169 21.1025C116.504 20.0725 116.137 18.9432 115.261 18.3066L111.13 15.3057C109.955 14.4515 110.559 12.5919 112.012 12.5918H117.118C118.201 12.5917 119.16 11.8942 119.495 10.8643L121.073 6.00879Z" fill="#F6B93B" stroke="#4A3728"/>
<path d="M156.073 6.00879C156.522 4.62683 158.478 4.62682 158.927 6.00879L160.505 10.8643V10.8652C160.84 11.8949 161.799 12.5917 162.882 12.5918H167.988C169.441 12.5919 170.045 14.4515 168.87 15.3057L164.739 18.3066C163.863 18.9433 163.496 20.0725 163.831 21.1025L165.408 25.958C165.857 27.3398 164.276 28.4893 163.101 27.6357L158.97 24.6338C158.094 23.9972 156.906 23.9972 156.03 24.6338L151.899 27.6357C150.724 28.4893 149.143 27.3398 149.592 25.958L151.169 21.1025C151.504 20.0725 151.137 18.9432 150.261 18.3066L146.13 15.3057C144.955 14.4515 145.559 12.5919 147.012 12.5918H152.118C153.201 12.5917 154.16 11.8942 154.495 10.8643L156.073 6.00879Z" fill="#F6B93B" stroke="#4A3728"/>
</svg>
