<svg width="511" height="96" viewBox="0 0 511 96" fill="none" xmlns="http://www.w3.org/2000/svg">
<path d="M13.125 26C14.875 26 16.375 26.5938 17.625 27.7812C18.875 28.9062 19.5312 30.3438 19.5938 32.0938V64.9062C19.5938 67.5938 20.4062 70.75 22.0312 74.375C22.7188 75.9375 22.6875 77.5 21.9375 79.0625C21.25 80.625 20.125 81.7812 18.5625 82.5312C14.9375 83.7188 12.2188 82.6875 10.4062 79.4375C8.15625 74.25 7 69.2812 6.9375 64.5312V32.0938C7 30.4062 7.625 29 8.8125 27.875C10 26.6875 11.4375 26.0625 13.125 26ZM68.8125 76.5312C68.8125 78.2812 68.1875 79.7812 66.9375 81.0312C65.75 82.2188 64.2812 82.8125 62.5312 82.8125H47.3438C46.9688 82.8125 46.5938 82.7812 46.2188 82.7188H45.6562C41.2812 82.5938 37.6875 81.5938 34.875 79.7188C32.0625 77.8438 30.0312 75.7188 28.7812 73.3438C27.5312 70.9062 26.9062 68.4688 26.9062 66.0312C26.9062 63.5312 27.8438 60.7812 29.7188 57.7812C31.5938 54.7812 33.875 52.9688 36.5625 52.3438C39.25 51.7188 41.2812 52.5 42.6562 54.6875C44.0312 56.875 43.9688 58.8438 42.4688 60.5938C40.9688 62.3438 40.1562 63.5312 40.0312 64.1562C39.9062 64.7812 39.8438 65.4062 39.8438 66.0312C39.8438 66.6562 40.0312 67.2812 40.4062 67.9062C40.7812 68.4688 41.3438 69 42.0938 69.5C42.9062 69.9375 43.9062 70.1875 45.0938 70.25H62.5312C64.2812 70.25 65.75 70.875 66.9375 72.125C68.1875 73.3125 68.8125 74.7812 68.8125 76.5312ZM29.625 33.7812C29.625 32.0312 30.2188 30.5625 31.4062 29.375C32.6562 28.125 34.1562 27.5 35.9062 27.5H62.1562C63.9062 27.5 65.4062 28.0938 66.6562 29.2812C67.8438 30.5313 68.4375 32.0312 68.4375 33.7812C68.4375 35.5312 67.8125 37.0312 66.5625 38.2812C65.375 39.4688 63.9062 40.0625 62.1562 40.0625H35.9062C34.1562 40.0625 32.6875 39.4375 31.5 38.1875C30.25 37 29.625 35.5312 29.625 33.7812ZM76.3125 45.9688C76.3125 44.5312 76.7812 43.3438 77.7188 42.4062C78.7188 41.4062 79.9062 40.9062 81.2812 40.9062H86.9062C87.0312 39.6562 87.5312 38.625 88.4062 37.8125C89.4062 36.875 90.625 36.4062 92.0625 36.4062C93.375 36.4688 94.5312 36.9375 95.5312 37.8125C96.3438 38.6875 96.8438 39.7188 97.0312 40.9062H104.25C104.438 39.6562 104.969 38.625 105.844 37.8125C106.844 36.875 108.031 36.4062 109.406 36.4062C110.781 36.4688 111.938 36.9375 112.875 37.8125C113.75 38.6875 114.25 39.7188 114.375 40.9062H116.156C119.531 41.0938 122.344 42.0625 124.594 43.8125C126.844 45.5625 128.469 47.5625 129.469 49.8125C130.469 52.0625 130.969 54.3438 130.969 56.6562C130.969 59.0938 130.469 61.4375 129.469 63.6875C128.531 65.9375 126.906 67.9375 124.594 69.6875C122.344 71.4375 119.469 72.3125 115.969 72.3125H108.938C107.5 72.3125 106.312 71.8125 105.375 70.8125C104.375 69.8125 103.875 68.625 103.875 67.25C103.875 65.875 104.344 64.6875 105.281 63.6875C106.281 62.6875 107.5 62.1875 108.938 62.1875H116.438C117.375 62.1875 118.156 61.875 118.781 61.25C119.406 60.625 119.875 59.9062 120.188 59.0938C120.5 58.2812 120.656 57.4375 120.656 56.5625C120.656 55.8125 120.5 55.0312 120.188 54.2188C119.875 53.3438 119.406 52.5938 118.781 51.9688C118.156 51.3438 117.375 51 116.438 50.9375H114.375C114 53.8125 112.344 55.375 109.406 55.625C108.031 55.625 106.844 55.1562 105.844 54.2188C104.844 53.3438 104.312 52.25 104.25 50.9375H97.0312V78.9688C96.7188 81.9688 95.0625 83.5938 92.0625 83.8438C90.625 83.8438 89.4062 83.375 88.4062 82.4375C87.4062 81.5 86.9062 80.3438 86.9062 78.9688V50.9375H81.2812C79.9062 50.9375 78.75 50.4375 77.8125 49.4375C76.8125 48.5 76.3125 47.3438 76.3125 45.9688ZM166.031 25.9062C167.594 26.5312 168.75 27.5938 169.5 29.0938C170.25 30.5938 170.375 32.125 169.875 33.6875L166.406 43.5312C167.406 43.0938 168.281 42.875 169.031 42.875H172.688C176.312 42.875 179.438 43.9688 182.062 46.1562C184.688 48.2812 186.031 51.3438 186.094 55.3438L186 62C185.625 65.5 186.156 67.7812 187.594 68.8438C188.969 69.9062 190.844 70.5 193.219 70.625H200.906C202.656 70.6875 204.094 71.3438 205.219 72.5938C206.406 73.7812 207 75.2188 207 76.9062C206.938 78.5312 206.312 79.9062 205.125 81.0312C204 82.1562 202.594 82.75 200.906 82.8125H190.031C184.844 82.5625 180.781 80.8125 177.844 77.5625C174.906 74.25 173.438 69.9375 173.438 64.625V59.9375C173.438 57 172 55.5 169.125 55.4375H167.344C164.281 55.5 161.562 58.4688 159.188 64.3438L153.469 80.6562C151.844 84.0312 149.219 85.25 145.594 84.3125C143.906 83.75 142.656 82.7188 141.844 81.2188C141.031 79.6562 140.906 78.0625 141.469 76.4375L157.875 29.5625C158.5 27.9375 159.594 26.7813 161.156 26.0938C162.719 25.4062 164.344 25.3438 166.031 25.9062ZM264.188 27.5C267.375 27.5625 270.219 28.5625 272.719 30.5C275.219 32.4375 277.219 34.75 278.719 37.4375C280.281 40.125 281.438 42.9688 282.188 45.9688C282.938 48.9688 283.312 52.0312 283.312 55.1562C283.312 59.2812 282.656 63.3438 281.344 67.3438C280.094 71.2812 278 74.7812 275.062 77.8438C272.188 80.9062 268.562 82.5625 264.188 82.8125H234.281C229.906 82.625 226.25 81 223.312 77.9375C220.375 74.875 218.281 71.3438 217.031 67.3438C215.844 63.3438 215.25 59.2812 215.25 55.1562C215.25 51.0312 215.875 47 217.125 43.0625C218.375 39.0625 220.438 35.5312 223.312 32.4688C226.25 29.3437 229.906 27.6875 234.281 27.5H264.188ZM261 70.25C263.375 70.125 265.344 69.25 266.906 67.625C268.531 65.9375 269.688 64 270.375 61.8125C271.062 59.625 271.406 57.4062 271.406 55.1562C271.406 52.9062 271.031 50.7188 270.281 48.5938C269.594 46.4062 268.469 44.4688 266.906 42.7812C265.344 41.0938 263.375 40.1875 261 40.0625H237.188C234.812 40.1875 232.844 41.0938 231.281 42.7812C229.719 44.4688 228.562 46.4062 227.812 48.5938C227.125 50.7188 226.781 52.9062 226.781 55.1562C226.781 57.4062 227.125 59.625 227.812 61.8125C228.5 64 229.625 65.9375 231.188 67.625C232.812 69.25 234.812 70.125 237.188 70.25H261ZM319.219 27.5H359.062C360.812 27.5 362.312 28.0938 363.562 29.2812C364.875 30.6562 365.469 32.1562 365.344 33.7812L362.344 55.8125C361.719 60.25 360.562 64.4375 358.875 68.375C357.062 72.3125 354.531 75.6562 351.281 78.4062C348.094 81.0938 344.312 82.5625 339.938 82.8125H331.312C329.625 82.75 328.188 82.1562 327 81.0312C325.875 79.8438 325.281 78.4062 325.219 76.7188C325.219 74.9688 325.781 73.4688 326.906 72.2188C328.094 70.9688 329.562 70.3125 331.312 70.25H338.438C340.812 70.125 342.875 69.2188 344.625 67.5312C346.438 65.8438 347.688 63.9375 348.375 61.8125C349.062 59.625 349.562 57.25 349.875 54.6875L351.562 42.4062C351.75 40.9062 351.219 40.125 349.969 40.0625H323.531C322.906 42.75 322.062 45.3125 321 47.75C319.188 51.6875 316.656 55.0312 313.406 57.7812C310.219 60.4688 306.438 61.9375 302.062 62.1875H300C298.312 62.125 296.875 61.5312 295.688 60.4062C294.562 59.2188 293.969 57.7812 293.906 56.0938C293.906 54.3438 294.469 52.8438 295.594 51.5938C296.781 50.3438 298.25 49.6875 300 49.625H300.562C302.938 49.5 305 48.5938 306.75 46.9062C308.562 45.2188 309.812 43.3125 310.5 41.1875C311.188 39 311.688 36.625 312 34.0625V33.5938C312.312 31.8438 313.156 30.375 314.531 29.1875C315.906 28.0625 317.469 27.5 319.219 27.5ZM337.594 17C337.594 15.125 338.25 13.5312 339.562 12.2188C340.875 10.9062 342.469 10.25 344.344 10.25C346.219 10.25 347.812 10.9062 349.125 12.2188C350.438 13.5312 351.094 15.125 351.094 17C351.094 18.875 350.438 20.4688 349.125 21.7812C347.812 23.0938 346.219 23.75 344.344 23.75C342.469 23.75 340.875 23.0938 339.562 21.7812C338.25 20.4688 337.594 18.875 337.594 17ZM353.719 17C353.719 15.125 354.375 13.5312 355.688 12.2188C357 10.9062 358.594 10.25 360.469 10.25C362.344 10.25 363.938 10.9062 365.25 12.2188C366.562 13.5312 367.219 15.125 367.219 17C367.219 18.875 366.562 20.4688 365.25 21.7812C363.938 23.0938 362.344 23.75 360.469 23.75C358.594 23.75 357 23.0938 355.688 21.7812C354.375 20.4688 353.719 18.875 353.719 17Z" fill="#4A3728"/>
<path d="M447.276 39.9737C460.909 39.9737 470.83 49.0703 470.83 59.0176C470.83 68.9651 460.909 78.0626 447.276 78.0626C433.644 78.0624 423.723 68.965 423.723 59.0176C423.723 49.0704 433.644 39.9738 447.276 39.9737Z" fill="#FCE3E2" stroke="#4A3728" stroke-width="7"/>
<path d="M487.212 36.431C492.266 36.431 495.95 40.2038 495.95 44.3646C495.95 48.5252 492.266 52.2972 487.212 52.2972C482.158 52.2972 478.474 48.5253 478.474 44.3646C478.474 40.2038 482.158 36.431 487.212 36.431Z" fill="#FCE3E2" stroke="#4A3728" stroke-width="7"/>
<path d="M468.21 13.8868C473.839 13.8869 477.271 17.5764 477.271 20.8536C477.271 24.1309 473.839 27.8203 468.21 27.8204C462.582 27.8204 459.15 24.131 459.15 20.8536C459.15 17.5763 462.582 13.8868 468.21 13.8868Z" fill="#FCE3E2" stroke="#4A3728" stroke-width="7"/>
<path d="M432.461 14.2089C438.623 14.2089 442.166 18.0425 442.166 21.1757C442.166 24.3089 438.623 28.1425 432.461 28.1425C426.3 28.1423 422.757 24.3089 422.757 21.1757C422.757 18.0425 426.3 14.209 432.461 14.2089Z" fill="#FCE3E2" stroke="#4A3728" stroke-width="7"/>
<path d="M406.536 39.0075C411.378 39.0077 414.469 42.3407 414.469 45.4909C414.469 48.6412 411.378 51.9751 406.536 51.9753C401.694 51.9753 398.603 48.6413 398.603 45.4909C398.603 42.3406 401.695 39.0075 406.536 39.0075Z" fill="#FCE3E2" stroke="#4A3728" stroke-width="7"/>
<path d="M448.565 91.868C418.42 94.1868 401.651 72.437 397.035 61.2723C372.881 33.8972 410.884 26.8119 410.884 26.8119C423.539 -10.225 448.565 12.9633 448.565 12.3192C480.771 -12.1574 487.856 24.8795 487.856 25.2016C527.147 38.084 493.975 65.7811 493.975 65.7811C485.215 86.393 460.051 91.6533 448.565 91.868Z" stroke="#4A3728" stroke-width="7"/>
</svg>
